<svg width="16" height="16" viewBox="0 0 16 16" fill="none" xmlns="http://www.w3.org/2000/svg">
<path fill-rule="evenodd" clip-rule="evenodd" d="M15.9571 15.0784C15.9571 15.5637 15.5637 15.9572 15.0785 15.9572H11.0215V9.79174H13.0909L13.4008 7.38896H11.0215V5.85494C11.0215 5.15928 11.2146 4.68521 12.2122 4.68521L13.4845 4.68466V2.53559C13.2645 2.50631 12.5092 2.44089 11.6305 2.44089C9.79607 2.44089 8.54016 3.56064 8.54016 5.61698V7.38896H6.46541V9.79174H8.54016V15.9572H0.91508C0.429643 15.9572 0.036377 15.5637 0.036377 15.0784V0.915019C0.036377 0.429644 0.429705 0.0363159 0.91508 0.0363159H15.0785C15.5637 0.0363159 15.9571 0.429644 15.9571 0.915019V15.0784Z" fill="#8F92A1"/>
</svg>
