<svg width="24" height="24" viewBox="0 0 24 24" fill="none" xmlns="http://www.w3.org/2000/svg">
<path fill-rule="evenodd" clip-rule="evenodd" d="M7 4V5H4C2.34314 5 1 6.34314 1 8V18C1 19.6569 2.34314 21 4 21H20C21.6569 21 23 19.6569 23 18V8C23 6.34314 21.6569 5 20 5H17V4C17 2.89545 16.1046 2 15 2H9C7.89539 2 7 2.89545 7 4ZM15 4H9V5H15V4ZM3 8C3 7.44769 3.44775 7 4 7H20C20.5522 7 21 7.44769 21 8V14H3V8ZM3 16V18C3 18.5523 3.44775 19 4 19H20C20.5522 19 21 18.5523 21 18V16H3ZM10 11H14V13H10V11Z" fill="#8F92A1"/>
</svg>
